<svg version="1.1" viewBox="0.0 0.0 480.0 480.0" fill="none" stroke="none" stroke-linecap="square" stroke-miterlimit="10" xmlns:xlink="http://www.w3.org/1999/xlink" xmlns="http://www.w3.org/2000/svg"><clipPath id="g11aeeb752f0_0_1.0"><path d="m0 0l480.0 0l0 480.0l-480.0 0l0 -480.0z" clip-rule="nonzero"/></clipPath><g clip-path="url(#g11aeeb752f0_0_1.0)"><path fill="#ffffff" d="m0 0l480.0 0l0 480.0l-480.0 0z" fill-rule="evenodd"/><path fill="#525a82" d="m0 240.0l0 0c0 -132.54834 107.45166 -240.0 240.0 -240.0l0 0c63.651947 0 124.6969 25.285643 169.70563 70.29437c45.008728 45.008728 70.29437 106.053665 70.29437 169.70563l0 0c0 132.54834 -107.45166 240.0 -240.0 240.0l0 0c-132.54834 0 -240.0 -107.45166 -240.0 -240.0z" fill-rule="evenodd"/><path stroke="#525a82" stroke-width="1.0" stroke-linejoin="round" stroke-linecap="butt" d="m0 240.0l0 0c0 -132.54834 107.45166 -240.0 240.0 -240.0l0 0c63.651947 0 124.6969 25.285643 169.70563 70.29437c45.008728 45.008728 70.29437 106.053665 70.29437 169.70563l0 0c0 132.54834 -107.45166 240.0 -240.0 240.0l0 0c-132.54834 0 -240.0 -107.45166 -240.0 -240.0z" fill-rule="evenodd"/><path fill="#000000" fill-opacity="0.0" d="m50.677166 239.52756l378.6457 0.94488525" fill-rule="evenodd"/><path stroke="#ffffff" stroke-width="4.0" stroke-linejoin="round" stroke-linecap="butt" d="m50.677166 239.52756l378.6457 0.94488525" fill-rule="evenodd"/><path fill="#000000" fill-opacity="0.0" d="m50.677166 186.60892l378.6457 0.94488525" fill-rule="evenodd"/><path stroke="#ffffff" stroke-width="4.0" stroke-linejoin="round" stroke-linecap="butt" d="m50.677166 186.60892l378.6457 0.94488525" fill-rule="evenodd"/><path fill="#000000" fill-opacity="0.0" d="m50.677166 133.69029l378.6457 0.94488525" fill-rule="evenodd"/><path stroke="#ffffff" stroke-width="4.0" stroke-linejoin="round" stroke-linecap="butt" d="m50.677166 133.69029l378.6457 0.94488525" fill-rule="evenodd"/><path fill="#000000" fill-opacity="0.0" d="m50.677166 292.4462l378.6457 0.94488525" fill-rule="evenodd"/><path stroke="#ffffff" stroke-width="4.0" stroke-linejoin="round" stroke-linecap="butt" d="m50.677166 292.4462l378.6457 0.94488525" fill-rule="evenodd"/><path fill="#000000" fill-opacity="0.0" d="m50.677166 345.36484l378.6457 0.94488525" fill-rule="evenodd"/><path stroke="#ffffff" stroke-width="4.0" stroke-linejoin="round" stroke-linecap="butt" d="m50.677166 345.36484l378.6457 0.94488525" fill-rule="evenodd"/><path fill="#ffffff" d="m72.191605 117.94765l0 0c0 -3.977684 3.2245483 -7.20224 7.20224 -7.20224l28.808113 0l0 0c1.9101486 0 3.742073 0.7588043 5.0927505 2.1094894c1.3506851 1.3506851 2.1094894 3.182602 2.1094894 5.0927505l0 28.80812c0 3.9776764 -3.224556 7.20224 -7.20224 7.20224l-28.808113 0c-3.9776917 0 -7.20224 -3.2245636 -7.20224 -7.20224z" fill-rule="evenodd"/><path stroke="#ffffff" stroke-width="1.0" stroke-linejoin="round" stroke-linecap="butt" d="m72.191605 117.94765l0 0c0 -3.977684 3.2245483 -7.20224 7.20224 -7.20224l28.808113 0l0 0c1.9101486 0 3.742073 0.7588043 5.0927505 2.1094894c1.3506851 1.3506851 2.1094894 3.182602 2.1094894 5.0927505l0 28.80812c0 3.9776764 -3.224556 7.20224 -7.20224 7.20224l-28.808113 0c-3.9776917 0 -7.20224 -3.2245636 -7.20224 -7.20224z" fill-rule="evenodd"/><path fill="#ffffff" d="m72.191605 170.86629l0 0c0 -3.9776917 3.2245483 -7.20224 7.20224 -7.20224l28.808113 0l0 0c1.9101486 0 3.742073 0.7588043 5.0927505 2.1094818c1.3506851 1.3506775 2.1094894 3.182602 2.1094894 5.092758l0 28.808105c0 3.9776917 -3.224556 7.2022552 -7.20224 7.2022552l-28.808113 0c-3.9776917 0 -7.20224 -3.2245636 -7.20224 -7.2022552z" fill-rule="evenodd"/><path stroke="#ffffff" stroke-width="1.0" stroke-linejoin="round" stroke-linecap="butt" d="m72.191605 170.86629l0 0c0 -3.9776917 3.2245483 -7.20224 7.20224 -7.20224l28.808113 0l0 0c1.9101486 0 3.742073 0.7588043 5.0927505 2.1094818c1.3506851 1.3506775 2.1094894 3.182602 2.1094894 5.092758l0 28.808105c0 3.9776917 -3.224556 7.2022552 -7.20224 7.2022552l-28.808113 0c-3.9776917 0 -7.20224 -3.2245636 -7.20224 -7.2022552z" fill-rule="evenodd"/><path fill="#ffffff" d="m130.3517 223.78493l0 0c0 -3.9776917 3.2245636 -7.2022552 7.2022552 -7.2022552l28.808105 0l0 0c1.9101562 0 3.7420654 0.7588043 5.092758 2.109497c1.3506775 1.3506775 2.1094818 3.182602 2.1094818 5.092758l0 28.808105c0 3.9776764 -3.2245483 7.2022552 -7.20224 7.2022552l-28.808105 0c-3.9776917 0 -7.2022552 -3.2245789 -7.2022552 -7.2022552z" fill-rule="evenodd"/><path stroke="#ffffff" stroke-width="1.0" stroke-linejoin="round" stroke-linecap="butt" d="m130.3517 223.78493l0 0c0 -3.9776917 3.2245636 -7.2022552 7.2022552 -7.2022552l28.808105 0l0 0c1.9101562 0 3.7420654 0.7588043 5.092758 2.109497c1.3506775 1.3506775 2.1094818 3.182602 2.1094818 5.092758l0 28.808105c0 3.9776764 -3.2245483 7.2022552 -7.20224 7.2022552l-28.808105 0c-3.9776917 0 -7.2022552 -3.2245789 -7.2022552 -7.2022552z" fill-rule="evenodd"/><path fill="#ffffff" d="m72.191605 276.70355l0 0c0 -3.9776917 3.2245483 -7.20224 7.20224 -7.20224l28.808113 0l0 0c1.9101486 0 3.742073 0.7588196 5.0927505 2.109497c1.3506851 1.3506775 2.1094894 3.1825867 2.1094894 5.092743l0 28.808105c0 3.9776917 -3.224556 7.20224 -7.20224 7.20224l-28.808113 0c-3.9776917 0 -7.20224 -3.2245483 -7.20224 -7.20224z" fill-rule="evenodd"/><path stroke="#ffffff" stroke-width="1.0" stroke-linejoin="round" stroke-linecap="butt" d="m72.191605 276.70355l0 0c0 -3.9776917 3.2245483 -7.20224 7.20224 -7.20224l28.808113 0l0 0c1.9101486 0 3.742073 0.7588196 5.0927505 2.109497c1.3506851 1.3506775 2.1094894 3.1825867 2.1094894 5.092743l0 28.808105c0 3.9776917 -3.224556 7.20224 -7.20224 7.20224l-28.808113 0c-3.9776917 0 -7.20224 -3.2245483 -7.20224 -7.20224z" fill-rule="evenodd"/><path fill="#ffffff" d="m72.191605 329.6222l0 0c0 -3.9776917 3.2245483 -7.20224 7.20224 -7.20224l28.808113 0l0 0c1.9101486 0 3.742073 0.75878906 5.0927505 2.109497c1.3506851 1.3506775 2.1094894 3.1825867 2.1094894 5.092743l0 28.808105c0 3.9776917 -3.224556 7.20224 -7.20224 7.20224l-28.808113 0c-3.9776917 0 -7.20224 -3.2245483 -7.20224 -7.20224z" fill-rule="evenodd"/><path stroke="#ffffff" stroke-width="1.0" stroke-linejoin="round" stroke-linecap="butt" d="m72.191605 329.6222l0 0c0 -3.9776917 3.2245483 -7.20224 7.20224 -7.20224l28.808113 0l0 0c1.9101486 0 3.742073 0.75878906 5.0927505 2.109497c1.3506851 1.3506775 2.1094894 3.1825867 2.1094894 5.092743l0 28.808105c0 3.9776917 -3.224556 7.20224 -7.20224 7.20224l-28.808113 0c-3.9776917 0 -7.20224 -3.2245483 -7.20224 -7.20224z" fill-rule="evenodd"/><path fill="#ffffff" d="m130.3517 117.94765l0 0c0 -3.977684 3.2245636 -7.20224 7.2022552 -7.20224l28.808105 0l0 0c1.9101562 0 3.7420654 0.7588043 5.092758 2.1094894c1.3506775 1.3506851 2.1094818 3.182602 2.1094818 5.0927505l0 81.7215c0 3.9776917 -3.2245483 7.20224 -7.20224 7.20224l-28.808105 0c-3.9776917 0 -7.2022552 -3.2245483 -7.2022552 -7.20224z" fill-rule="evenodd"/><path stroke="#ffffff" stroke-width="1.0" stroke-linejoin="round" stroke-linecap="butt" d="m130.3517 117.94765l0 0c0 -3.977684 3.2245636 -7.20224 7.2022552 -7.20224l28.808105 0l0 0c1.9101562 0 3.7420654 0.7588043 5.092758 2.1094894c1.3506775 1.3506851 2.1094818 3.182602 2.1094818 5.0927505l0 81.7215c0 3.9776917 -3.2245483 7.20224 -7.20224 7.20224l-28.808105 0c-3.9776917 0 -7.2022552 -3.2245483 -7.2022552 -7.20224z" fill-rule="evenodd"/><path fill="#ffffff" d="m130.3517 276.7088l0 0c0 -3.9776917 3.2245636 -7.20224 7.2022552 -7.20224l28.808105 0l0 0c1.9101562 0 3.7420654 0.7588196 5.092758 2.109497c1.3506775 1.3506775 2.1094818 3.1825867 2.1094818 5.092743l0 81.7215c0 3.9776917 -3.2245483 7.20224 -7.20224 7.20224l-28.808105 0c-3.9776917 0 -7.2022552 -3.2245483 -7.2022552 -7.20224z" fill-rule="evenodd"/><path stroke="#ffffff" stroke-width="1.0" stroke-linejoin="round" stroke-linecap="butt" d="m130.3517 276.7088l0 0c0 -3.9776917 3.2245636 -7.20224 7.2022552 -7.20224l28.808105 0l0 0c1.9101562 0 3.7420654 0.7588196 5.092758 2.109497c1.3506775 1.3506775 2.1094818 3.1825867 2.1094818 5.092743l0 81.7215c0 3.9776917 -3.2245483 7.20224 -7.20224 7.20224l-28.808105 0c-3.9776917 0 -7.2022552 -3.2245483 -7.2022552 -7.20224z" fill-rule="evenodd"/><path fill="#ffffff" d="m188.51443 170.86891l0 0c0 -3.9776917 3.2245483 -7.20224 7.20224 -7.20224l28.80812 0l0 0c1.9101562 0 3.7420654 0.7588043 5.092743 2.1094818c1.3506927 1.3506775 2.109497 3.182602 2.109497 5.092758l0 81.7215c0 3.9776764 -3.2245483 7.2022552 -7.20224 7.2022552l-28.80812 0c-3.9776917 0 -7.20224 -3.2245789 -7.20224 -7.2022552z" fill-rule="evenodd"/><path stroke="#ffffff" stroke-width="1.0" stroke-linejoin="round" stroke-linecap="butt" d="m188.51443 170.86891l0 0c0 -3.9776917 3.2245483 -7.20224 7.20224 -7.20224l28.80812 0l0 0c1.9101562 0 3.7420654 0.7588043 5.092743 2.1094818c1.3506927 1.3506775 2.109497 3.182602 2.109497 5.092758l0 81.7215c0 3.9776764 -3.2245483 7.2022552 -7.20224 7.2022552l-28.80812 0c-3.9776917 0 -7.20224 -3.2245789 -7.20224 -7.2022552z" fill-rule="evenodd"/><path fill="#ffffff" d="m247.47453 223.78755l0 0c0 -3.9776917 3.2245636 -7.2022552 7.2022552 -7.2022552l28.808105 0l0 0c1.9101562 0 3.7420654 0.7588043 5.092743 2.109497c1.350708 1.3506775 2.109497 3.182602 2.109497 5.092758l0 81.72148c0 3.9776917 -3.2245483 7.20224 -7.20224 7.20224l-28.808105 0c-3.9776917 0 -7.2022552 -3.2245483 -7.2022552 -7.20224z" fill-rule="evenodd"/><path stroke="#ffffff" stroke-width="1.0" stroke-linejoin="round" stroke-linecap="butt" d="m247.47453 223.78755l0 0c0 -3.9776917 3.2245636 -7.2022552 7.2022552 -7.2022552l28.808105 0l0 0c1.9101562 0 3.7420654 0.7588043 5.092743 2.109497c1.350708 1.3506775 2.109497 3.182602 2.109497 5.092758l0 81.72148c0 3.9776917 -3.2245483 7.20224 -7.20224 7.20224l-28.808105 0c-3.9776917 0 -7.2022552 -3.2245483 -7.2022552 -7.20224z" fill-rule="evenodd"/><path fill="#ffffff" d="m188.51181 117.94765l0 0c0 -3.977684 3.2245483 -7.20224 7.20224 -7.20224l28.80812 0l0 0c1.910141 0 3.7420654 0.7588043 5.092743 2.1094894c1.3506927 1.3506851 2.109497 3.182602 2.109497 5.0927505l0 28.80812c0 3.9776764 -3.2245483 7.20224 -7.20224 7.20224l-28.80812 0c-3.9776917 0 -7.20224 -3.2245636 -7.20224 -7.20224z" fill-rule="evenodd"/><path stroke="#ffffff" stroke-width="1.0" stroke-linejoin="round" stroke-linecap="butt" d="m188.51181 117.94765l0 0c0 -3.977684 3.2245483 -7.20224 7.20224 -7.20224l28.80812 0l0 0c1.910141 0 3.7420654 0.7588043 5.092743 2.1094894c1.3506927 1.3506851 2.109497 3.182602 2.109497 5.0927505l0 28.80812c0 3.9776764 -3.2245483 7.20224 -7.20224 7.20224l-28.80812 0c-3.9776917 0 -7.20224 -3.2245636 -7.20224 -7.20224z" fill-rule="evenodd"/><path fill="#ffffff" d="m188.51443 276.70355l0 0c0 -3.9776917 3.2245483 -7.20224 7.20224 -7.20224l28.80812 0l0 0c1.9101562 0 3.7420654 0.7588196 5.092743 2.109497c1.3506927 1.3506775 2.109497 3.1825867 2.109497 5.092743l0 28.808105c0 3.9776917 -3.2245483 7.20224 -7.20224 7.20224l-28.80812 0c-3.9776917 0 -7.20224 -3.2245483 -7.20224 -7.20224z" fill-rule="evenodd"/><path stroke="#ffffff" stroke-width="1.0" stroke-linejoin="round" stroke-linecap="butt" d="m188.51443 276.70355l0 0c0 -3.9776917 3.2245483 -7.20224 7.20224 -7.20224l28.80812 0l0 0c1.9101562 0 3.7420654 0.7588196 5.092743 2.109497c1.3506927 1.3506775 2.109497 3.1825867 2.109497 5.092743l0 28.808105c0 3.9776917 -3.2245483 7.20224 -7.20224 7.20224l-28.80812 0c-3.9776917 0 -7.20224 -3.2245483 -7.20224 -7.20224z" fill-rule="evenodd"/><path fill="#ffffff" d="m188.51443 329.62482l0 0c0 -3.9776917 3.2245483 -7.20224 7.20224 -7.20224l28.80812 0l0 0c1.9101562 0 3.7420654 0.75878906 5.092743 2.109497c1.3506927 1.3506775 2.109497 3.1825867 2.109497 5.092743l0 28.808105c0 3.9776917 -3.2245483 7.20224 -7.20224 7.20224l-28.80812 0c-3.9776917 0 -7.20224 -3.2245483 -7.20224 -7.20224z" fill-rule="evenodd"/><path stroke="#ffffff" stroke-width="1.0" stroke-linejoin="round" stroke-linecap="butt" d="m188.51443 329.62482l0 0c0 -3.9776917 3.2245483 -7.20224 7.20224 -7.20224l28.80812 0l0 0c1.9101562 0 3.7420654 0.75878906 5.092743 2.109497c1.3506927 1.3506775 2.109497 3.1825867 2.109497 5.092743l0 28.808105c0 3.9776917 -3.2245483 7.20224 -7.20224 7.20224l-28.80812 0c-3.9776917 0 -7.20224 -3.2245483 -7.20224 -7.20224z" fill-rule="evenodd"/><path fill="#ffffff" d="m247.47453 117.94765l0 0c0 -3.977684 3.2245636 -7.20224 7.2022552 -7.20224l28.808105 0l0 0c1.9101562 0 3.7420654 0.7588043 5.092743 2.1094894c1.350708 1.3506851 2.109497 3.182602 2.109497 5.0927505l0 81.7215c0 3.9776917 -3.2245483 7.20224 -7.20224 7.20224l-28.808105 0c-3.9776917 0 -7.2022552 -3.2245483 -7.2022552 -7.20224z" fill-rule="evenodd"/><path stroke="#ffffff" stroke-width="1.0" stroke-linejoin="round" stroke-linecap="butt" d="m247.47453 117.94765l0 0c0 -3.977684 3.2245636 -7.20224 7.2022552 -7.20224l28.808105 0l0 0c1.9101562 0 3.7420654 0.7588043 5.092743 2.1094894c1.350708 1.3506851 2.109497 3.182602 2.109497 5.0927505l0 81.7215c0 3.9776917 -3.2245483 7.20224 -7.20224 7.20224l-28.808105 0c-3.9776917 0 -7.2022552 -3.2245483 -7.2022552 -7.20224z" fill-rule="evenodd"/><path fill="#ffffff" d="m306.03455 280.32822l0 0c0 -3.9776917 3.2245483 -7.20224 7.20224 -7.20224l28.808105 0l0 0c1.9101562 0 3.7420654 0.7588196 5.0927734 2.109497c1.3506775 1.3506775 2.1094666 3.1825867 2.1094666 5.092743l0 81.7215c0 3.9776917 -3.2245483 7.2022705 -7.20224 7.2022705l-28.808105 0c-3.9776917 0 -7.20224 -3.2245789 -7.20224 -7.2022705z" fill-rule="evenodd"/><path stroke="#ffffff" stroke-width="1.0" stroke-linejoin="round" stroke-linecap="butt" d="m306.03455 280.32822l0 0c0 -3.9776917 3.2245483 -7.20224 7.20224 -7.20224l28.808105 0l0 0c1.9101562 0 3.7420654 0.7588196 5.0927734 2.109497c1.3506775 1.3506775 2.1094666 3.1825867 2.1094666 5.092743l0 81.7215c0 3.9776917 -3.2245483 7.2022705 -7.20224 7.2022705l-28.808105 0c-3.9776917 0 -7.20224 -3.2245789 -7.20224 -7.2022705z" fill-rule="evenodd"/><path fill="#ffffff" d="m364.59454 170.86891l0 0c0 -3.9776917 3.2245483 -7.20224 7.20224 -7.20224l28.808105 0l0 0c1.9101562 0 3.7420654 0.7588043 5.0927734 2.1094818c1.3506775 1.3506775 2.1094666 3.182602 2.1094666 5.092758l0 81.7215c0 3.9776764 -3.2245483 7.2022552 -7.20224 7.2022552l-28.808105 0c-3.9776917 0 -7.20224 -3.2245789 -7.20224 -7.2022552z" fill-rule="evenodd"/><path stroke="#ffffff" stroke-width="1.0" stroke-linejoin="round" stroke-linecap="butt" d="m364.59454 170.86891l0 0c0 -3.9776917 3.2245483 -7.20224 7.20224 -7.20224l28.808105 0l0 0c1.9101562 0 3.7420654 0.7588043 5.0927734 2.1094818c1.3506775 1.3506775 2.1094666 3.182602 2.1094666 5.092758l0 81.7215c0 3.9776764 -3.2245483 7.2022552 -7.20224 7.2022552l-28.808105 0c-3.9776917 0 -7.20224 -3.2245789 -7.20224 -7.2022552z" fill-rule="evenodd"/><path fill="#ffffff" d="m306.4357 223.78493l0 0c0 -3.9776917 3.2245483 -7.2022552 7.20224 -7.2022552l28.808105 0l0 0c1.9101562 0 3.7420654 0.7588043 5.0927734 2.109497c1.3506775 1.3506775 2.1094666 3.182602 2.1094666 5.092758l0 28.808105c0 3.9776764 -3.2245483 7.2022552 -7.20224 7.2022552l-28.808105 0c-3.9776917 0 -7.20224 -3.2245789 -7.20224 -7.2022552z" fill-rule="evenodd"/><path stroke="#ffffff" stroke-width="1.0" stroke-linejoin="round" stroke-linecap="butt" d="m306.4357 223.78493l0 0c0 -3.9776917 3.2245483 -7.2022552 7.20224 -7.2022552l28.808105 0l0 0c1.9101562 0 3.7420654 0.7588043 5.0927734 2.109497c1.3506775 1.3506775 2.1094666 3.182602 2.1094666 5.092758l0 28.808105c0 3.9776764 -3.2245483 7.2022552 -7.20224 7.2022552l-28.808105 0c-3.9776917 0 -7.20224 -3.2245789 -7.20224 -7.2022552z" fill-rule="evenodd"/><path fill="#ffffff" d="m306.4357 170.86629l0 0c0 -3.9776917 3.2245483 -7.20224 7.20224 -7.20224l28.808105 0l0 0c1.9101562 0 3.7420654 0.7588043 5.0927734 2.1094818c1.3506775 1.3506775 2.1094666 3.182602 2.1094666 5.092758l0 28.808105c0 3.9776917 -3.2245483 7.2022552 -7.20224 7.2022552l-28.808105 0c-3.9776917 0 -7.20224 -3.2245636 -7.20224 -7.2022552z" fill-rule="evenodd"/><path stroke="#ffffff" stroke-width="1.0" stroke-linejoin="round" stroke-linecap="butt" d="m306.4357 170.86629l0 0c0 -3.9776917 3.2245483 -7.20224 7.20224 -7.20224l28.808105 0l0 0c1.9101562 0 3.7420654 0.7588043 5.0927734 2.1094818c1.3506775 1.3506775 2.1094666 3.182602 2.1094666 5.092758l0 28.808105c0 3.9776917 -3.2245483 7.2022552 -7.20224 7.2022552l-28.808105 0c-3.9776917 0 -7.20224 -3.2245636 -7.20224 -7.2022552z" fill-rule="evenodd"/><path fill="#ffffff" d="m306.43832 117.94765l0 0c0 -3.977684 3.2245483 -7.20224 7.20224 -7.20224l28.808105 0l0 0c1.9101562 0 3.7420654 0.7588043 5.0927734 2.1094894c1.3506775 1.3506851 2.1094666 3.182602 2.1094666 5.0927505l0 28.80812c0 3.9776764 -3.2245483 7.20224 -7.20224 7.20224l-28.808105 0c-3.9776917 0 -7.20224 -3.2245636 -7.20224 -7.20224z" fill-rule="evenodd"/><path stroke="#ffffff" stroke-width="1.0" stroke-linejoin="round" stroke-linecap="butt" d="m306.43832 117.94765l0 0c0 -3.977684 3.2245483 -7.20224 7.20224 -7.20224l28.808105 0l0 0c1.9101562 0 3.7420654 0.7588043 5.0927734 2.1094894c1.3506775 1.3506851 2.1094666 3.182602 2.1094666 5.0927505l0 28.80812c0 3.9776764 -3.2245483 7.20224 -7.20224 7.20224l-28.808105 0c-3.9776917 0 -7.20224 -3.2245636 -7.20224 -7.20224z" fill-rule="evenodd"/><path fill="#ffffff" d="m364.59317 276.70355l0 0c0 -3.9776917 3.2245483 -7.20224 7.20224 -7.20224l28.808105 0l0 0c1.9101562 0 3.742096 0.7588196 5.0927734 2.109497c1.3506775 1.3506775 2.109497 3.1825867 2.109497 5.092743l0 28.808105c0 3.9776917 -3.2245789 7.20224 -7.2022705 7.20224l-28.808105 0c-3.9776917 0 -7.20224 -3.2245483 -7.20224 -7.20224z" fill-rule="evenodd"/><path stroke="#ffffff" stroke-width="1.0" stroke-linejoin="round" stroke-linecap="butt" d="m364.59317 276.70355l0 0c0 -3.9776917 3.2245483 -7.20224 7.20224 -7.20224l28.808105 0l0 0c1.9101562 0 3.742096 0.7588196 5.0927734 2.109497c1.3506775 1.3506775 2.109497 3.1825867 2.109497 5.092743l0 28.808105c0 3.9776917 -3.2245789 7.20224 -7.2022705 7.20224l-28.808105 0c-3.9776917 0 -7.20224 -3.2245483 -7.20224 -7.20224z" fill-rule="evenodd"/><path fill="#ffffff" d="m364.59317 329.62482l0 0c0 -3.9776917 3.2245483 -7.20224 7.20224 -7.20224l28.808105 0l0 0c1.9101562 0 3.742096 0.75878906 5.0927734 2.109497c1.3506775 1.3506775 2.109497 3.1825867 2.109497 5.092743l0 28.808105c0 3.9776917 -3.2245789 7.20224 -7.2022705 7.20224l-28.808105 0c-3.9776917 0 -7.20224 -3.2245483 -7.20224 -7.20224z" fill-rule="evenodd"/><path stroke="#ffffff" stroke-width="1.0" stroke-linejoin="round" stroke-linecap="butt" d="m364.59317 329.62482l0 0c0 -3.9776917 3.2245483 -7.20224 7.20224 -7.20224l28.808105 0l0 0c1.9101562 0 3.742096 0.75878906 5.0927734 2.109497c1.3506775 1.3506775 2.109497 3.1825867 2.109497 5.092743l0 28.808105c0 3.9776917 -3.2245789 7.20224 -7.2022705 7.20224l-28.808105 0c-3.9776917 0 -7.20224 -3.2245483 -7.20224 -7.20224z" fill-rule="evenodd"/></g></svg>