<svg version="1.1" viewBox="0.0 0.0 480.0 480.0" fill="none" stroke="none" stroke-linecap="square" stroke-miterlimit="10" xmlns:xlink="http://www.w3.org/1999/xlink" xmlns="http://www.w3.org/2000/svg"><clipPath id="g11aeeb752f0_0_51.0"><path d="m0 0l480.0 0l0 480.0l-480.0 0l0 -480.0z" clip-rule="nonzero"/></clipPath><g clip-path="url(#g11aeeb752f0_0_51.0)"><path fill="#ffffff" d="m0 0l480.0 0l0 480.0l-480.0 0z" fill-rule="evenodd"/><path fill="#525a82" d="m0 240.0l0 0c0 -132.54834 107.45166 -240.0 240.0 -240.0l0 0c63.651947 0 124.6969 25.285643 169.70563 70.29437c45.008728 45.008728 70.29437 106.053665 70.29437 169.70563l0 0c0 132.54834 -107.45166 240.0 -240.0 240.0l0 0c-132.54834 0 -240.0 -107.45166 -240.0 -240.0z" fill-rule="evenodd"/><path stroke="#525a82" stroke-width="1.0" stroke-linejoin="round" stroke-linecap="butt" d="m0 240.0l0 0c0 -132.54834 107.45166 -240.0 240.0 -240.0l0 0c63.651947 0 124.6969 25.285643 169.70563 70.29437c45.008728 45.008728 70.29437 106.053665 70.29437 169.70563l0 0c0 132.54834 -107.45166 240.0 -240.0 240.0l0 0c-132.54834 0 -240.0 -107.45166 -240.0 -240.0z" fill-rule="evenodd"/><path fill="#ffffff" d="m201.08661 157.2965l38.91339 -52.698067l38.91339 52.698067l-19.456696 0l0 218.10509l-38.91339 0l0 -218.10509z" fill-rule="evenodd"/><path stroke="#ffffff" stroke-width="1.0" stroke-linejoin="round" stroke-linecap="butt" d="m201.08661 157.2965l38.91339 -52.698067l38.91339 52.698067l-19.456696 0l0 218.10509l-38.91339 0l0 -218.10509z" fill-rule="evenodd"/><path fill="#ffffff" d="m76.81628 157.2965l38.913383 -52.698067l38.91339 52.698067l-19.456696 0l0 218.10509l-38.91339 0l0 -218.10509z" fill-rule="evenodd"/><path stroke="#ffffff" stroke-width="1.0" stroke-linejoin="round" stroke-linecap="butt" d="m76.81628 157.2965l38.913383 -52.698067l38.91339 52.698067l-19.456696 0l0 218.10509l-38.91339 0l0 -218.10509z" fill-rule="evenodd"/><path fill="#d9d9d9" d="m403.18372 322.70352l-38.91336 52.69806l-38.91339 -52.69806l19.456696 0l0 -218.1051l38.91336 0l0 218.1051z" fill-rule="evenodd"/><path stroke="#d9d9d9" stroke-width="1.0" stroke-linejoin="round" stroke-linecap="butt" d="m403.18372 322.70352l-38.91336 52.69806l-38.91339 -52.69806l19.456696 0l0 -218.1051l38.91336 0l0 218.1051z" fill-rule="evenodd"/></g></svg>