<svg version="1.1" viewBox="0.0 0.0 480.0 480.0" fill="none" stroke="none" stroke-linecap="square" stroke-miterlimit="10" xmlns:xlink="http://www.w3.org/1999/xlink" xmlns="http://www.w3.org/2000/svg"><clipPath id="g11aeeb752f0_0_61.0"><path d="m0 0l480.0 0l0 480.0l-480.0 0l0 -480.0z" clip-rule="nonzero"/></clipPath><g clip-path="url(#g11aeeb752f0_0_61.0)"><path fill="#ffffff" d="m0 0l480.0 0l0 480.0l-480.0 0z" fill-rule="evenodd"/><path fill="#525a82" d="m0 240.0l0 0c0 -132.54834 107.45166 -240.0 240.0 -240.0l0 0c63.651947 0 124.6969 25.285643 169.70563 70.29437c45.008728 45.008728 70.29437 106.053665 70.29437 169.70563l0 0c0 132.54834 -107.45166 240.0 -240.0 240.0l0 0c-132.54834 0 -240.0 -107.45166 -240.0 -240.0z" fill-rule="evenodd"/><path stroke="#525a82" stroke-width="1.0" stroke-linejoin="round" stroke-linecap="butt" d="m0 240.0l0 0c0 -132.54834 107.45166 -240.0 240.0 -240.0l0 0c63.651947 0 124.6969 25.285643 169.70563 70.29437c45.008728 45.008728 70.29437 106.053665 70.29437 169.70563l0 0c0 132.54834 -107.45166 240.0 -240.0 240.0l0 0c-132.54834 0 -240.0 -107.45166 -240.0 -240.0z" fill-rule="evenodd"/><path fill="#d9d9d9" d="m255.56627 149.91989l62.065994 -20.838058l1.6505432 65.43648l-15.929138 -11.149597l-125.13086 178.68948l-31.858261 -22.299194l125.130844 -178.68951z" fill-rule="evenodd"/><path stroke="#d9d9d9" stroke-width="1.0" stroke-linejoin="round" stroke-linecap="butt" d="m255.56627 149.91989l62.065994 -20.838058l1.6505432 65.43648l-15.929138 -11.149597l-125.13086 178.68948l-31.858261 -22.299194l125.130844 -178.68951z" fill-rule="evenodd"/><path fill="#d9d9d9" d="m285.4398 160.6933l65.46225 1.6435242l-20.832306 62.072998l-11.157501 -15.929123l-178.67947 125.123825l-22.314957 -31.858246l178.67949 -125.123856z" fill-rule="evenodd"/><path stroke="#d9d9d9" stroke-width="1.0" stroke-linejoin="round" stroke-linecap="butt" d="m285.4398 160.6933l65.46225 1.6435242l-20.832306 62.072998l-11.157501 -15.929123l-178.67947 125.123825l-22.314957 -31.858246l178.67949 -125.123856z" fill-rule="evenodd"/><path fill="#ffffff" d="m270.9526 154.00906l64.79581 -9.756439l-9.740692 64.78006l-13.763763 -13.755905l-154.22781 154.2278l-27.527557 -27.51181l154.22781 -154.2278z" fill-rule="evenodd"/><path stroke="#ffffff" stroke-width="1.0" stroke-linejoin="round" stroke-linecap="butt" d="m270.9526 154.00906l64.79581 -9.756439l-9.740692 64.78006l-13.763763 -13.755905l-154.22781 154.2278l-27.527557 -27.51181l154.22781 -154.2278z" fill-rule="evenodd"/><path fill="#000000" fill-opacity="0.0" d="m327.7623 79.67895c33.539124 17.223442 60.573853 44.738365 77.07681 78.4459l-157.61076 75.99063z" fill-rule="evenodd"/><path fill="#000000" fill-opacity="0.0" d="m327.7623 79.67895c33.539124 17.223442 60.573853 44.738365 77.07681 78.4459" fill-rule="evenodd"/><path stroke="#d9d9d9" stroke-width="4.0" stroke-linejoin="round" stroke-linecap="butt" d="m343.33173 88.71179l0.39508057 0.25724792c0.24450684 0.16007996 0.48858643 0.32073975 0.73223877 0.48199463c0.48724365 0.3224945 0.9727173 0.64733887 1.4564209 0.9745102c1.9349365 1.3086624 3.8414612 2.6545258 5.718689 4.0365906c7.5087585 5.528244 14.548126 11.6356735 21.055115 18.258224c6.506958 6.622551 12.481537 13.760231 17.86084 21.349007c1.3448181 1.8971863 2.6524353 3.8225555 3.9218445 5.7751465c0.3173828 0.48812866 0.6323242 0.9779663 0.9449158 1.4694977c0.15625 0.24577332 0.3119812 0.49195862 0.46704102 0.7385559l0.21166992 0.3385315" fill-rule="evenodd"/><path fill="#d9d9d9" stroke="#d9d9d9" stroke-width="4.0" stroke-linecap="butt" d="m345.55136 84.88593l-12.731079 -2.2725143l8.29184 9.924217z" fill-rule="evenodd"/><path fill="#d9d9d9" stroke="#d9d9d9" stroke-width="4.0" stroke-linecap="butt" d="m392.22937 144.53963l9.769257 8.473846l-2.0368042 -12.770905z" fill-rule="evenodd"/></g></svg>