<svg version="1.1" viewBox="0.0 0.0 624.0 144.0" fill="none" stroke="none" stroke-linecap="square" stroke-miterlimit="10" xmlns:xlink="http://www.w3.org/1999/xlink" xmlns="http://www.w3.org/2000/svg"><clipPath id="p.0"><path d="m0 0l624.0 0l0 144.0l-624.0 0l0 -144.0z" clip-rule="nonzero"/></clipPath><g clip-path="url(#p.0)"><path fill="#ffffff" d="m0 0l624.0 0l0 144.0l-624.0 0z" fill-rule="evenodd"/><path fill="#000000" fill-opacity="0.0" d="m4.3307085E-5 1.824147E-4l624.0 0l0 123.37008l-624.0 0z" fill-rule="evenodd"/><path fill="#434343" d="m28.911116 92.970276l0 -90.65625l27.390623 0l16.453129 61.84375l16.265625 -61.84375l27.453125 0l0 90.65625l-17.0 0l0 -71.375l-18.0 71.375l-17.625004 0l-17.9375 -71.375l0 71.375l-16.999998 0zm105.193146 0l0 -90.65625l18.3125 0l0 90.65625l-18.3125 0zm56.157913 0l0 -75.328125l-26.90625 0l0 -15.328126l72.046875 0l0 15.328126l-26.84375 0l0 75.328125l-18.296875 0zm92.3371 0l0 -90.65625l17.8125 0l37.09375 60.53125l0 -60.53125l17.015625 0l0 90.65625l-18.375 0l-36.546875 -59.125l0 59.125l-17.0 0zm129.18582 -20.90625l17.3125 2.90625q-3.328125 9.53125 -10.546875 14.515625q-7.203125 4.96875 -18.015625 4.96875q-17.140625 0 -25.359375 -11.1875q-6.5 -8.96875 -6.5 -22.640625q0 -16.328125 8.53125 -25.5625q8.546875 -9.25 21.59375 -9.25q14.65625 0 23.125 9.671875q8.46875 9.671875 8.109375 29.65625l-43.546875 0q0.1875 7.734375 4.203125 12.03125q4.03125 4.296875 10.03125 4.296875q4.078125 0 6.859375 -2.21875q2.78125 -2.234375 4.203125 -7.1875zm0.984375 -17.5625q-0.1875 -7.546875 -3.90625 -11.46875q-3.703125 -3.921875 -9.015625 -3.921875q-5.6875 0 -9.40625 4.140625q-3.703125 4.140625 -3.640625 11.25l25.96875 0zm43.67453 38.46875l-20.78125 -65.671875l16.875 0l12.3125 43.03125l11.3125 -43.03125l16.765625 0l10.9375 43.03125l12.5625305 -43.03125l17.125 0l-21.09375 65.671875l-16.68753 0l-11.328125 -42.234375l-11.125 42.234375l-16.875 0zm80.1423 -18.734375l17.4375 -2.65625q1.109375 5.0625 4.515625 7.703125q3.40625 2.625 9.53125 2.625q6.734375 0 10.140625 -2.484375q2.28125 -1.734375 2.28125 -4.640625q0 -1.96875 -1.234375 -3.265625q-1.296875 -1.25 -5.8125 -2.296875q-21.03125 -4.640625 -26.65625 -8.46875q-7.796875 -5.328125 -7.796875 -14.78125q0 -8.53125 6.734375 -14.34375q6.75 -5.8125 20.921875 -5.8125q13.46875 0 20.03125 4.390625q6.5625 4.390625 9.03125 12.984375l-16.390625 3.03125q-1.046875 -3.84375 -3.984375 -5.875q-2.9375 -2.046875 -8.390625 -2.046875q-6.859375 0 -9.828125 1.921875q-1.984375 1.359375 -1.984375 3.515625q0 1.859375 1.734375 3.15625q2.359375 1.734375 16.234375 4.890625q13.890625 3.15625 19.390625 7.734375q5.4375 4.640625 5.4375 12.921875q0 9.03125 -7.546875 15.53125q-7.53125 6.484375 -22.3125 6.484375q-13.421875 0 -21.25 -5.4375q-7.828125 -5.453125 -10.234375 -14.78125z" fill-rule="nonzero"/><path fill="#000000" fill-opacity="0.0" d="m-0.005249344 101.703415l624.0 0l0 42.29921l-624.0 0z" fill-rule="evenodd"/><path fill="#434343" d="m27.613281 119.48841q0 -3.203125 0.953125 -5.375q0.71875 -1.609375 1.953125 -2.875q1.234375 -1.28125 2.71875 -1.890625q1.953125 -0.84375 4.515625 -0.84375q4.640625 0 7.421875 2.890625q2.796875 2.875 2.796875 8.0q0 5.078125 -2.765625 7.953125q-2.765625 2.8750076 -7.390625 2.8750076q-4.6875 0 -7.453125 -2.8593826q-2.75 -2.859375 -2.75 -7.875zm4.359375 -0.140625q0 3.5625 1.640625 5.40625q1.65625 1.84375 4.1875 1.84375q2.53125 0 4.15625 -1.828125q1.625 -1.828125 1.625 -5.46875q0 -3.609375 -1.578125 -5.390625q-1.578125 -1.78125 -4.203125 -1.78125q-2.625 0 -4.234375 1.796875q-1.59375 1.796875 -1.59375 5.421875zm19.343613 10.515633l0 -21.000008l4.125 0l8.59375 14.03125l0 -14.03125l3.9375 0l0 21.000008l-4.25 0l-8.46875 -13.687508l0 13.687508l-3.9375 0zm42.718765 -7.7187576l4.109375 1.296875q-0.9375 3.4375 -3.140625 5.1093826q-2.203125 1.671875 -5.578125 1.671875q-4.171875 0 -6.875 -2.8593826q-2.6875 -2.859375 -2.6875 -7.8125q0 -5.234375 2.703125 -8.140625q2.703125 -2.90625 7.125 -2.90625q3.84375 0 6.25 2.28125q1.4375 1.34375 2.15625 3.875l-4.203125 1.0q-0.375 -1.640625 -1.5625 -2.578125q-1.171875 -0.953125 -2.859375 -0.953125q-2.34375 0 -3.796875 1.6875q-1.453125 1.671875 -1.453125 5.421875q0 3.984375 1.4375 5.671875q1.4375 1.6875 3.71875 1.6875q1.703125 0 2.90625 -1.0625q1.21875 -1.078125 1.75 -3.390625zm26.67984 7.7187576l-4.609375 0l-1.828125 -4.7656326l-8.390625 0l-1.734375 4.7656326l-4.5 0l8.171875 -21.000008l4.484375 0l8.40625 21.000008zm-7.796875 -8.312508l-2.890625 -7.78125l-2.84375 7.78125l5.734375 0zm9.99234 8.312508l0 -21.000008l6.34375 0l3.8125 14.328125l3.765625 -14.328125l6.359375 0l0 21.000008l-3.9375 0l0 -16.531258l-4.171875 16.531258l-4.078125 0l-4.15625 -16.531258l0 16.531258l-3.9375 0zm24.493057 0l0 -21.000008l6.796875 0q3.859375 0 5.046875 0.328125q1.796875 0.46875 3.015625 2.046875q1.21875 1.578125 1.21875 4.09375q0 1.921875 -0.703125 3.25q-0.703125 1.3125 -1.78125 2.0625q-1.078125 0.75 -2.203125 1.0q-1.515625 0.296875 -4.390625 0.296875l-2.765625 0l0 7.9218826l-4.234375 0zm4.234375 -17.437508l0 5.953125l2.3125 0q2.515625 0 3.359375 -0.328125q0.84375 -0.328125 1.3125 -1.03125q0.484375 -0.703125 0.484375 -1.640625q0 -1.140625 -0.671875 -1.875q-0.671875 -0.75 -1.703125 -0.9375q-0.75 -0.140625 -3.046875 -0.140625l-2.046875 0zm15.296005 -3.5625l4.234375 0l0 11.375q0 2.703125 0.15625 3.515625q0.28125 1.28125 1.296875 2.0625q1.03125 0.78125 2.796875 0.78125q1.8125 0 2.71875 -0.734375q0.921875 -0.734375 1.109375 -1.8125q0.1875 -1.078125 0.1875 -3.5625l0 -11.625l4.234375 0l0 11.03125q0 3.78125 -0.34375 5.34375q-0.34375 1.5625 -1.265625 2.640625q-0.921875 1.0625076 -2.46875 1.7031326q-1.546875 0.640625 -4.046875 0.640625q-3.0 0 -4.5625 -0.6875q-1.546875 -0.703125 -2.453125 -1.8125076q-0.890625 -1.109375 -1.1875 -2.328125q-0.40625 -1.796875 -0.40625 -5.328125l0 -11.203125zm20.132965 14.171875l4.125 -0.40625q0.375 2.078125 1.5 3.0625q1.140625 0.96875 3.078125 0.96875q2.046875 0 3.078125 -0.859375q1.046875 -0.875 1.046875 -2.03125q0 -0.75 -0.4375 -1.265625q-0.4375 -0.53125 -1.53125 -0.921875q-0.734375 -0.25 -3.390625 -0.90625q-3.40625 -0.84375 -4.78125 -2.078125q-1.9375 -1.734375 -1.9375 -4.234375q0 -1.59375 0.90625 -2.984375q0.921875 -1.40625 2.625 -2.140625q1.71875 -0.734375 4.140625 -0.734375q3.953125 0 5.9375 1.734375q2.0 1.734375 2.109375 4.625l-4.234375 0.1875q-0.28125 -1.609375 -1.171875 -2.3125q-0.890625 -0.71875 -2.6875 -0.71875q-1.84375 0 -2.890625 0.765625q-0.671875 0.484375 -0.671875 1.296875q0 0.75 0.625 1.28125q0.796875 0.671875 3.890625 1.40625q3.09375 0.71875 4.578125 1.5q1.484375 0.78125 2.3125 2.140625q0.84375 1.34375 0.84375 3.34375q0 1.796875 -1.0 3.375q-1.0 1.5781326 -2.84375 2.3437576q-1.828125 0.765625 -4.5625 0.765625q-3.96875 0 -6.109375 -1.84375q-2.140625 -1.8437576 -2.546875 -5.3593826zm46.621384 6.8281326l-4.609375 0l-1.828125 -4.7656326l-8.390625 0l-1.734375 4.7656326l-4.5 0l8.171875 -21.000008l4.484375 0l8.40625 21.000008zm-7.796875 -8.312508l-2.890625 -7.78125l-2.84375 7.78125l5.734375 0zm10.08609 8.312508l0 -21.000008l4.125 0l8.59375 14.03125l0 -14.03125l3.9375 0l0 21.000008l-4.25 0l-8.46875 -13.687508l0 13.687508l-3.9375 0zm21.13295 -21.000008l7.734375 0q2.625 0 4.0 0.40625q1.84375 0.546875 3.15625 1.9375q1.328125 1.390625 2.015625 3.40625q0.6875 2.0 0.6875 4.953125q0 2.59375 -0.640625 4.46875q-0.796875 2.296875 -2.25 3.703125q-1.109375 1.0781326 -2.984375 1.6875076q-1.40625 0.4375 -3.75 0.4375l-7.96875 0l0 -21.000008zm4.234375 3.5625l0 13.90625l3.15625 0q1.78125 0 2.578125 -0.203125q1.03125 -0.265625 1.703125 -0.875q0.6875 -0.625 1.109375 -2.03125q0.4375 -1.40625 0.4375 -3.84375q0 -2.4375 -0.4375 -3.734375q-0.421875 -1.296875 -1.203125 -2.03125q-0.765625 -0.734375 -1.953125 -0.984375q-0.890625 -0.203125 -3.484375 -0.203125l-1.90625 0zm42.94275 17.437508l-4.609375 0l-1.828125 -4.7656326l-8.390625 0l-1.734375 4.7656326l-4.5 0l8.171875 -21.000008l4.484375 0l8.40625 21.000008zm-7.796875 -8.312508l-2.890625 -7.78125l-2.84375 7.78125l5.734375 0zm10.05484 8.312508l0 -21.000008l8.921875 0q3.375 0 4.890625 0.578125q1.53125 0.5625 2.4375 2.015625q0.921875 1.4375 0.921875 3.296875q0 2.359375 -1.390625 3.90625q-1.375 1.53125 -4.140625 1.9375q1.375 0.796875 2.265625 1.765625q0.890625 0.953125 2.40625 3.40625l2.5625 4.0937576l-5.0625 0l-3.0625 -4.5625076q-1.640625 -2.453125 -2.25 -3.09375q-0.59375 -0.640625 -1.265625 -0.875q-0.671875 -0.234375 -2.125 -0.234375l-0.859375 0l0 8.765633l-4.25 0zm4.25 -12.109383l3.125 0q3.0625 0 3.8125 -0.25q0.765625 -0.265625 1.1875 -0.890625q0.4375 -0.640625 0.4375 -1.578125q0 -1.0625 -0.578125 -1.71875q-0.5625 -0.65625 -1.59375 -0.828125q-0.515625 -0.0625 -3.09375 -0.0625l-3.296875 0l0 5.328125zm16.070465 1.734375q0 -3.203125 0.953125 -5.375q0.71875 -1.609375 1.953125 -2.875q1.234375 -1.28125 2.71875 -1.890625q1.953125 -0.84375 4.515625 -0.84375q4.640625 0 7.421875 2.890625q2.796875 2.875 2.796875 8.0q0 5.078125 -2.765625 7.953125q-2.765625 2.8750076 -7.390625 2.8750076q-4.6875 0 -7.453125 -2.8593826q-2.75 -2.859375 -2.75 -7.875zm4.359375 -0.140625q0 3.5625 1.640625 5.40625q1.65625 1.84375 4.1875 1.84375q2.53125 0 4.15625 -1.828125q1.625 -1.828125 1.625 -5.46875q0 -3.609375 -1.578125 -5.390625q-1.578125 -1.78125 -4.203125 -1.78125q-2.625 0 -4.234375 1.796875q-1.59375 1.796875 -1.59375 5.421875zm19.281128 -10.484375l4.234375 0l0 11.375q0 2.703125 0.15625 3.515625q0.28125 1.28125 1.296875 2.0625q1.03125 0.78125 2.796875 0.78125q1.8125 0 2.71875 -0.734375q0.921875 -0.734375 1.109375 -1.8125q0.1875 -1.078125 0.1875 -3.5625l0 -11.625l4.234375 0l0 11.03125q0 3.78125 -0.34375 5.34375q-0.34375 1.5625 -1.265625 2.640625q-0.921875 1.0625076 -2.46875 1.7031326q-1.546875 0.640625 -4.046875 0.640625q-3.0 0 -4.5625 -0.6875q-1.546875 -0.703125 -2.453125 -1.8125076q-0.890625 -1.109375 -1.1875 -2.328125q-0.40625 -1.796875 -0.40625 -5.328125l0 -11.203125zm21.24234 21.000008l0 -21.000008l4.125 0l8.59375 14.03125l0 -14.03125l3.9375 0l0 21.000008l-4.25 0l-8.46875 -13.687508l0 13.687508l-3.9375 0zm21.132965 -21.000008l7.734375 0q2.625 0 4.0 0.40625q1.84375 0.546875 3.15625 1.9375q1.328125 1.390625 2.015625 3.40625q0.6875 2.0 0.6875 4.953125q0 2.59375 -0.640625 4.46875q-0.796875 2.296875 -2.25 3.703125q-1.109375 1.0781326 -2.984375 1.6875076q-1.40625 0.4375 -3.75 0.4375l-7.96875 0l0 -21.000008zm4.234375 3.5625l0 13.90625l3.15625 0q1.78125 0 2.578125 -0.203125q1.03125 -0.265625 1.703125 -0.875q0.6875 -0.625 1.109375 -2.03125q0.4375 -1.40625 0.4375 -3.84375q0 -2.4375 -0.4375 -3.734375q-0.421875 -1.296875 -1.203125 -2.03125q-0.765625 -0.734375 -1.953125 -0.984375q-0.890625 -0.203125 -3.484375 -0.203125l-1.90625 0zm29.828125 17.437508l0 -17.437508l-6.234375 0l0 -3.5625l16.6875 0l0 3.5625l-6.21875 0l0 17.437508l-4.234375 0zm13.196045 0l0 -21.000008l4.25 0l0 8.265625l8.296875 0l0 -8.265625l4.25 0l0 21.000008l-4.25 0l0 -9.171883l-8.296875 0l0 9.171883l-4.25 0zm21.17984 0l0 -21.000008l15.5625 0l0 3.5625l-11.328125 0l0 4.65625l10.53125 0l0 3.53125l-10.53125 0l0 5.71875l11.71875 0l0 3.5312576l-15.953125 0zm30.67868 0l-5.015625 -21.000008l4.34375 0l3.171875 14.421875l3.828125 -14.421875l5.046875 0l3.671875 14.671875l3.234375 -14.671875l4.265625 0l-5.109375 21.000008l-4.484375 0l-4.1875 -15.687508l-4.171875 15.687508l-4.59375 0zm23.85315 -10.375008q0 -3.203125 0.953125 -5.375q0.71875 -1.609375 1.953125 -2.875q1.234375 -1.28125 2.71875 -1.890625q1.953125 -0.84375 4.515625 -0.84375q4.640625 0 7.421875 2.890625q2.796875 2.875 2.796875 8.0q0 5.078125 -2.765625 7.953125q-2.765625 2.8750076 -7.390625 2.8750076q-4.6875 0 -7.453125 -2.8593826q-2.75 -2.859375 -2.75 -7.875zm4.359375 -0.140625q0 3.5625 1.640625 5.40625q1.65625 1.84375 4.1875 1.84375q2.53125 0 4.15625 -1.828125q1.625 -1.828125 1.625 -5.46875q0 -3.609375 -1.578125 -5.390625q-1.578125 -1.78125 -4.203125 -1.78125q-2.625 0 -4.234375 1.796875q-1.59375 1.796875 -1.59375 5.421875zm19.312378 10.515633l0 -21.000008l8.921875 0q3.375 0 4.890625 0.578125q1.53125 0.5625 2.4375 2.015625q0.921875 1.4375 0.921875 3.296875q0 2.359375 -1.390625 3.90625q-1.375 1.53125 -4.140625 1.9375q1.375 0.796875 2.265625 1.765625q0.890625 0.953125 2.40625 3.40625l2.5625 4.0937576l-5.0625 0l-3.0625 -4.5625076q-1.640625 -2.453125 -2.25 -3.09375q-0.59375 -0.640625 -1.265625 -0.875q-0.671875 -0.234375 -2.125 -0.234375l-0.859375 0l0 8.765633l-4.25 0zm4.25 -12.109383l3.125 0q3.0625 0 3.8125 -0.25q0.765625 -0.265625 1.1875 -0.890625q0.4375 -0.640625 0.4375 -1.578125q0 -1.0625 -0.578125 -1.71875q-0.5625 -0.65625 -1.59375 -0.828125q-0.515625 -0.0625 -3.09375 -0.0625l-3.296875 0l0 5.328125zm17.039246 12.109383l0 -20.828133l4.234375 0l0 17.296875l10.546875 0l0 3.5312576l-14.78125 0zm17.789795 -21.000008l7.734375 0q2.625 0 4.0 0.40625q1.84375 0.546875 3.15625 1.9375q1.328125 1.390625 2.015625 3.40625q0.6875 2.0 0.6875 4.953125q0 2.59375 -0.640625 4.46875q-0.796875 2.296875 -2.25 3.703125q-1.109375 1.0781326 -2.984375 1.6875076q-1.40625 0.4375 -3.75 0.4375l-7.96875 0l0 -21.000008zm4.234375 3.5625l0 13.90625l3.15625 0q1.78125 0 2.578125 -0.203125q1.03125 -0.265625 1.703125 -0.875q0.6875 -0.625 1.109375 -2.03125q0.4375 -1.40625 0.4375 -3.84375q0 -2.4375 -0.4375 -3.734375q-0.421875 -1.296875 -1.203125 -2.03125q-0.765625 -0.734375 -1.953125 -0.984375q-0.890625 -0.203125 -3.484375 -0.203125l-1.90625 0z" fill-rule="nonzero"/></g></svg>